<?xml version="1.0" encoding="UTF-8" standalone="no"?><!DOCTYPE svg PUBLIC "-//W3C//DTD SVG 1.1//EN" "http://www.w3.org/Graphics/SVG/1.1/DTD/svg11.dtd"><svg width="100%" height="100%" viewBox="0 0 5906 5906" version="1.1" xmlns="http://www.w3.org/2000/svg" xmlns:xlink="http://www.w3.org/1999/xlink" xml:space="preserve" xmlns:serif="http://www.serif.com/" style="fill-rule:evenodd;clip-rule:evenodd;stroke-linejoin:round;stroke-miterlimit:2;"><g><path d="M1752.746,3452.34c78.326,-87.678 119.422,-201.517 150.612,-303.889c30.263,-99.328 62.15,-244.796 80.327,-294.967c33.632,-92.832 107.138,-224.773 232.176,-264.855c87.471,-28.039 168.767,-0.743 230.363,17.521c59.961,17.779 119.597,55.962 182.78,102.899c64.989,-64.989 131.331,-110.571 199.028,-136.747c67.696,-26.176 147.578,-39.264 239.645,-39.264c184.134,0 306.89,70.404 368.269,211.213c70.404,-77.625 141.26,-132.234 212.567,-163.825c71.307,-31.592 164.277,-47.388 278.909,-47.388c114.633,0 207.602,35.653 278.909,106.96c71.307,71.307 106.96,168.338 106.96,291.095l0,695.919c0,48.741 11.734,87.103 35.202,115.084c23.468,27.981 62.578,57.616 108.314,74.466c61.739,22.746 107.953,19.316 174.386,-0.542c66.433,-19.858 75.639,-31.953 153.265,-107.773c77.625,-75.82 138.101,-181.426 181.426,-316.819l243.707,-417.01c48.741,-129.977 111.925,-236.035 189.55,-318.173c77.625,-82.138 166.082,-123.208 265.37,-123.208c57.768,0 106.96,20.309 147.578,60.927c40.618,40.618 60.927,89.811 60.927,147.578c0,57.768 -20.309,106.96 -60.927,147.578c-40.618,40.618 -88.005,60.927 -142.163,60.927c-54.157,0 -99.739,-14.442 -136.747,-43.326c-37.007,-28.884 -60.927,-66.794 -71.758,-113.73c-79.43,77.625 -140.809,185.037 -184.134,322.235l-243.707,417.01c-48.741,129.977 -111.022,235.132 -186.842,315.465c-75.82,80.333 -105.048,92.504 -150.557,101.545c-101.093,20.083 -311.584,18.955 -456.003,18.955c-222.044,0 -333.066,-132.685 -333.066,-398.055l0,-695.919c0,-55.962 -16.247,-99.288 -48.741,-129.977c-32.494,-30.689 -77.174,-46.034 -134.039,-46.034c-56.865,0 -112.827,24.371 -167.887,73.112c-55.06,48.741 -82.59,111.925 -82.59,189.55l0,966.705l-406.179,0l0,-1053.356c0,-55.962 -16.247,-99.288 -48.741,-129.977c-32.494,-30.689 -77.174,-46.034 -134.039,-46.034c-56.865,0 -112.827,24.371 -167.887,73.112c-55.06,48.741 -82.59,111.925 -82.59,189.55l0,966.705l-406.179,0c0,0 74.889,-1181.224 -6.347,-1201.189c-78.888,-19.388 -122.557,83.988 -143.801,144.35c-11.045,31.384 -40.665,164.435 -78.771,314.454l-101.12,176.879l-145.456,90.261Z" style="fill:#109544;"/><path d="M1998.917,3185.038c14.771,-15.804 -96.406,269.458 -138.944,337.018c-88.384,140.375 -205.364,252.806 -350.938,337.291c-145.574,84.485 -309.346,126.728 -491.314,126.728c-309.346,0 -556.302,-102.032 -740.87,-306.096c-184.568,-204.064 -276.851,-450.371 -276.851,-738.92c0,-288.549 98.133,-530.957 294.398,-727.222c196.265,-196.265 468.568,-294.398 816.906,-294.398c228.76,0 408.128,53.291 538.105,159.872c129.977,106.581 194.966,241.757 194.966,405.529c0,163.771 -72.137,315.195 -216.412,454.27c-144.275,139.076 -334.691,208.613 -571.25,208.613c-80.586,0 -158.572,-9.098 -233.959,-27.295l-7.799,-93.584c168.97,-15.597 299.597,-79.936 391.881,-193.016c92.284,-113.08 138.426,-227.46 138.426,-343.14c0,-115.68 -25.346,-204.714 -76.037,-267.103c-50.691,-62.389 -127.378,-93.584 -230.06,-93.584c-102.682,0 -200.815,72.787 -294.398,218.362c-93.584,145.574 -140.375,340.54 -140.375,584.897c0,244.357 44.192,440.623 132.577,588.796c88.384,148.174 214.462,222.261 378.234,222.261c249.556,0 461.419,-97.483 635.588,-292.449c0,0 102.784,-82.037 141.551,-170.444c28,-63.853 95.76,-84.817 106.574,-96.386Z" style="fill:#0cd25a;"/><path d="M5277.289,3115.227l262.662,546.987c23.468,46.936 43.777,78.979 60.927,96.129c17.15,17.15 41.069,25.725 71.758,25.725c61.378,0 121.854,-26.176 181.426,-78.528l51.449,64.989c-139.003,131.782 -284.325,197.674 -435.965,197.674c-151.64,0 -258.149,-64.989 -319.527,-194.966l-116.438,-240.999l-67.696,-140.809l-262.662,-552.403c-23.468,-46.936 -43.777,-78.979 -60.927,-96.129c-17.15,-17.15 -41.069,-25.725 -71.758,-25.725c-61.378,0 -121.854,26.176 -181.426,78.528l-51.449,-64.989c139.003,-131.782 284.325,-197.674 435.965,-197.674c151.64,0 258.149,64.989 319.527,194.966l116.438,246.415l67.696,140.809Z" style="fill:#0cd25a;"/></g></svg>