<?xml version="1.0" encoding="UTF-8" standalone="no"?><!DOCTYPE svg PUBLIC "-//W3C//DTD SVG 1.1//EN" "http://www.w3.org/Graphics/SVG/1.1/DTD/svg11.dtd"><svg width="100%" height="100%" viewBox="0 0 11812 11812" version="1.1" xmlns="http://www.w3.org/2000/svg" xmlns:xlink="http://www.w3.org/1999/xlink" xml:space="preserve" xmlns:serif="http://www.serif.com/" style="fill-rule:evenodd;clip-rule:evenodd;stroke-linejoin:round;stroke-miterlimit:2;"><g><path d="M3505.492,6904.68c156.651,-175.356 238.843,-403.033 301.224,-607.777c60.526,-198.656 124.301,-489.591 160.654,-589.935c67.265,-185.665 214.276,-449.546 464.352,-529.71c174.941,-56.079 337.533,-1.486 460.726,35.042c119.923,35.559 239.194,111.925 365.561,205.797c129.977,-129.977 262.662,-221.142 398.055,-273.494c135.393,-52.352 295.156,-78.528 479.291,-78.528c368.269,0 613.781,140.809 736.537,422.426c140.809,-155.25 282.52,-264.467 425.134,-327.651c142.614,-63.183 328.553,-94.775 557.819,-94.775c229.265,0 415.205,71.307 557.819,213.921c142.614,142.614 213.921,336.677 213.921,582.189l0,1391.839c0,97.483 23.468,174.205 70.404,230.168c46.936,55.962 125.156,115.232 216.629,148.932c123.478,45.492 215.906,38.632 348.772,-1.083c132.866,-39.715 151.279,-63.905 306.529,-215.545c155.25,-151.64 276.201,-362.853 362.853,-633.639l487.414,-834.02c97.483,-259.954 223.85,-472.07 379.1,-636.346c155.25,-164.277 332.164,-246.415 530.74,-246.415c115.535,0 213.921,40.618 295.156,121.854c81.236,81.236 121.854,179.621 121.854,295.156c0,115.535 -40.618,213.921 -121.854,295.156c-81.236,81.236 -176.011,121.854 -284.325,121.854c-108.314,0 -199.479,-28.884 -273.494,-86.651c-74.015,-57.768 -121.854,-133.588 -143.516,-227.46c-158.861,155.25 -281.617,370.074 -368.269,644.47l-487.414,834.02c-97.483,259.954 -222.044,470.265 -373.684,630.931c-151.64,160.666 -210.095,185.008 -301.114,203.089c-202.187,40.167 -623.168,37.91 -912.006,37.91c-444.089,0 -666.133,-265.37 -666.133,-796.11l0,-1391.839c0,-111.925 -32.494,-198.576 -97.483,-259.954c-64.989,-61.378 -154.348,-92.067 -268.078,-92.067c-113.73,0 -225.655,48.741 -335.774,146.224c-110.12,97.483 -165.179,223.85 -165.179,379.1l0,1933.41l-812.357,0l0,-2106.713c0,-111.925 -32.494,-198.576 -97.483,-259.954c-64.989,-61.378 -154.348,-92.067 -268.078,-92.067c-113.73,0 -225.655,48.741 -335.774,146.224c-110.12,97.483 -165.179,223.85 -165.179,379.1l0,1933.41l-812.357,0c0,0 149.778,-2362.448 -12.693,-2402.377c-157.777,-38.775 -245.115,167.975 -287.602,288.7c-22.091,62.769 -81.331,328.869 -157.543,628.908l-202.241,353.758l-290.912,180.522Z" style="fill:#109544;"/><path d="M3997.834,6370.075c29.543,-31.608 -192.811,538.915 -277.888,674.036c-176.769,280.751 -410.728,505.611 -701.877,674.581c-291.149,168.97 -618.691,253.455 -982.627,253.455c-618.691,0 -1112.604,-204.064 -1481.74,-612.192c-369.135,-408.128 -553.703,-900.742 -553.703,-1477.84c0,-577.099 196.265,-1061.913 588.796,-1454.444c392.531,-392.531 937.135,-588.796 1633.813,-588.796c457.52,0 816.257,106.581 1076.211,319.744c259.954,213.163 389.931,483.515 389.931,811.057c0,327.542 -144.275,630.389 -432.824,908.54c-288.549,278.151 -669.382,417.227 -1142.499,417.227c-161.172,0 -317.144,-18.197 -467.918,-54.59l-15.597,-187.167c337.941,-31.195 599.195,-159.872 783.762,-386.032c184.568,-226.16 276.851,-454.92 276.851,-686.279c0,-231.359 -50.691,-409.428 -152.073,-534.206c-101.382,-124.778 -254.755,-187.167 -460.119,-187.167c-205.364,0 -401.629,145.574 -588.796,436.723c-187.167,291.149 -280.751,681.08 -280.751,1169.794c0,488.714 88.384,881.245 265.153,1177.593c176.769,296.348 428.925,444.522 756.467,444.522c499.112,0 922.838,-194.966 1271.177,-584.897c0,0 205.568,-164.073 283.102,-340.888c55.999,-127.706 191.52,-169.633 213.148,-192.773Z" style="fill:#0cd25a;"/><path d="M10554.578,6230.455l525.324,1093.974c46.936,93.872 87.554,157.958 121.854,192.258c34.3,34.3 82.138,51.449 143.516,51.449c122.756,0 243.707,-52.352 362.853,-157.056l102.899,129.977c-278.007,263.565 -568.65,395.347 -871.93,395.347c-303.28,0 -516.298,-129.977 -639.054,-389.931l-232.876,-481.999l-135.393,-281.617l-525.324,-1104.806c-46.936,-93.872 -87.554,-157.958 -121.854,-192.258c-34.3,-34.3 -82.138,-51.449 -143.516,-51.449c-122.756,0 -243.707,52.352 -362.853,157.056l-102.899,-129.977c278.007,-263.565 568.65,-395.347 871.93,-395.347c303.28,0 516.298,129.977 639.054,389.931l232.876,492.83l135.393,281.617Z" style="fill:#0cd25a;"/></g></svg>